<mxfile host="app.diagrams.net" modified="2023-11-20T18:39:14.852Z" agent="Mozilla/5.0 (Windows NT 10.0; Win64; x64; rv:109.0) Gecko/20100101 Firefox/119.0" etag="40umJc99CbagUHQugAdE" version="22.1.3" type="device">
  <diagram id="C5RBs43oDa-KdzZeNtuy" name="Page-1">
    <mxGraphModel dx="1434" dy="746" grid="1" gridSize="10" guides="1" tooltips="1" connect="1" arrows="1" fold="1" page="1" pageScale="1" pageWidth="827" pageHeight="1169" math="0" shadow="0">
      <root>
        <mxCell id="WIyWlLk6GJQsqaUBKTNV-0" />
        <mxCell id="WIyWlLk6GJQsqaUBKTNV-1" parent="WIyWlLk6GJQsqaUBKTNV-0" />
        <mxCell id="ZnPqjKqT4I3JlQYO53mA-11" value="&lt;div&gt;Object Classes (Classes.h)&lt;/div&gt;" style="swimlane;whiteSpace=wrap;html=1;" vertex="1" parent="WIyWlLk6GJQsqaUBKTNV-1">
          <mxGeometry x="580" y="130" width="520" height="680" as="geometry" />
        </mxCell>
        <mxCell id="zkfFHV4jXpPFQw0GAbJ--17" value="EnemyObject : InheritPosition&#xa;" style="swimlane;fontStyle=0;align=center;verticalAlign=top;childLayout=stackLayout;horizontal=1;startSize=26;horizontalStack=0;resizeParent=1;resizeLast=0;collapsible=1;marginBottom=0;rounded=0;shadow=0;strokeWidth=1;" parent="ZnPqjKqT4I3JlQYO53mA-11" vertex="1">
          <mxGeometry x="17" y="150" width="180" height="450" as="geometry">
            <mxRectangle x="550" y="140" width="160" height="26" as="alternateBounds" />
          </mxGeometry>
        </mxCell>
        <mxCell id="zkfFHV4jXpPFQw0GAbJ--18" value="Private" style="text;align=left;verticalAlign=top;spacingLeft=4;spacingRight=4;overflow=hidden;rotatable=0;points=[[0,0.5],[1,0.5]];portConstraint=eastwest;fontStyle=4" parent="zkfFHV4jXpPFQw0GAbJ--17" vertex="1">
          <mxGeometry y="26" width="180" height="26" as="geometry" />
        </mxCell>
        <mxCell id="zkfFHV4jXpPFQw0GAbJ--19" value="int Health&#xa;" style="text;align=left;verticalAlign=top;spacingLeft=4;spacingRight=4;overflow=hidden;rotatable=0;points=[[0,0.5],[1,0.5]];portConstraint=eastwest;rounded=0;shadow=0;html=0;" parent="zkfFHV4jXpPFQw0GAbJ--17" vertex="1">
          <mxGeometry y="52" width="180" height="26" as="geometry" />
        </mxCell>
        <mxCell id="zkfFHV4jXpPFQw0GAbJ--20" value="int MaxHealth" style="text;align=left;verticalAlign=top;spacingLeft=4;spacingRight=4;overflow=hidden;rotatable=0;points=[[0,0.5],[1,0.5]];portConstraint=eastwest;rounded=0;shadow=0;html=0;" parent="zkfFHV4jXpPFQw0GAbJ--17" vertex="1">
          <mxGeometry y="78" width="180" height="26" as="geometry" />
        </mxCell>
        <mxCell id="Q1LwQsz6OWA5U66TN1-t-8" value="string Type&#xa;" style="text;align=left;verticalAlign=top;spacingLeft=4;spacingRight=4;overflow=hidden;rotatable=0;points=[[0,0.5],[1,0.5]];portConstraint=eastwest;rounded=0;shadow=0;html=0;" parent="zkfFHV4jXpPFQw0GAbJ--17" vertex="1">
          <mxGeometry y="104" width="180" height="26" as="geometry" />
        </mxCell>
        <mxCell id="zkfFHV4jXpPFQw0GAbJ--23" value="" style="line;html=1;strokeWidth=1;align=left;verticalAlign=middle;spacingTop=-1;spacingLeft=3;spacingRight=3;rotatable=0;labelPosition=right;points=[];portConstraint=eastwest;" parent="zkfFHV4jXpPFQw0GAbJ--17" vertex="1">
          <mxGeometry y="130" width="180" height="8" as="geometry" />
        </mxCell>
        <mxCell id="zkfFHV4jXpPFQw0GAbJ--24" value="Public" style="text;align=left;verticalAlign=top;spacingLeft=4;spacingRight=4;overflow=hidden;rotatable=0;points=[[0,0.5],[1,0.5]];portConstraint=eastwest;fontStyle=4" parent="zkfFHV4jXpPFQw0GAbJ--17" vertex="1">
          <mxGeometry y="138" width="180" height="26" as="geometry" />
        </mxCell>
        <mxCell id="zkfFHV4jXpPFQw0GAbJ--25" value="bool Active&#xa;" style="text;align=left;verticalAlign=top;spacingLeft=4;spacingRight=4;overflow=hidden;rotatable=0;points=[[0,0.5],[1,0.5]];portConstraint=eastwest;" parent="zkfFHV4jXpPFQw0GAbJ--17" vertex="1">
          <mxGeometry y="164" width="180" height="26" as="geometry" />
        </mxCell>
        <mxCell id="Q1LwQsz6OWA5U66TN1-t-3" value="Constructor()&#xa;" style="text;align=left;verticalAlign=top;spacingLeft=4;spacingRight=4;overflow=hidden;rotatable=0;points=[[0,0.5],[1,0.5]];portConstraint=eastwest;" parent="zkfFHV4jXpPFQw0GAbJ--17" vertex="1">
          <mxGeometry y="190" width="180" height="26" as="geometry" />
        </mxCell>
        <mxCell id="ZnPqjKqT4I3JlQYO53mA-49" style="edgeStyle=orthogonalEdgeStyle;rounded=0;orthogonalLoop=1;jettySize=auto;html=1;exitX=1;exitY=0.5;exitDx=0;exitDy=0;entryX=1;entryY=0.5;entryDx=0;entryDy=0;" edge="1" parent="zkfFHV4jXpPFQw0GAbJ--17" source="Q1LwQsz6OWA5U66TN1-t-4" target="zkfFHV4jXpPFQw0GAbJ--19">
          <mxGeometry relative="1" as="geometry" />
        </mxCell>
        <mxCell id="ZnPqjKqT4I3JlQYO53mA-50" style="edgeStyle=orthogonalEdgeStyle;rounded=0;orthogonalLoop=1;jettySize=auto;html=1;exitX=1;exitY=0.5;exitDx=0;exitDy=0;entryX=1;entryY=0.5;entryDx=0;entryDy=0;" edge="1" parent="zkfFHV4jXpPFQw0GAbJ--17" source="Q1LwQsz6OWA5U66TN1-t-4" target="zkfFHV4jXpPFQw0GAbJ--20">
          <mxGeometry relative="1" as="geometry" />
        </mxCell>
        <mxCell id="ZnPqjKqT4I3JlQYO53mA-51" style="edgeStyle=orthogonalEdgeStyle;rounded=0;orthogonalLoop=1;jettySize=auto;html=1;exitX=1;exitY=0.5;exitDx=0;exitDy=0;entryX=1;entryY=0.5;entryDx=0;entryDy=0;" edge="1" parent="zkfFHV4jXpPFQw0GAbJ--17" source="Q1LwQsz6OWA5U66TN1-t-4" target="Q1LwQsz6OWA5U66TN1-t-8">
          <mxGeometry relative="1" as="geometry" />
        </mxCell>
        <mxCell id="Q1LwQsz6OWA5U66TN1-t-4" value="void Init()&#xa;" style="text;align=left;verticalAlign=top;spacingLeft=4;spacingRight=4;overflow=hidden;rotatable=0;points=[[0,0.5],[1,0.5]];portConstraint=eastwest;" parent="zkfFHV4jXpPFQw0GAbJ--17" vertex="1">
          <mxGeometry y="216" width="180" height="26" as="geometry" />
        </mxCell>
        <mxCell id="Q1LwQsz6OWA5U66TN1-t-5" value="void SetType()&#xa;" style="text;align=left;verticalAlign=top;spacingLeft=4;spacingRight=4;overflow=hidden;rotatable=0;points=[[0,0.5],[1,0.5]];portConstraint=eastwest;" parent="zkfFHV4jXpPFQw0GAbJ--17" vertex="1">
          <mxGeometry y="242" width="180" height="26" as="geometry" />
        </mxCell>
        <mxCell id="ZnPqjKqT4I3JlQYO53mA-0" value="string GetType()&#xa;" style="text;align=left;verticalAlign=top;spacingLeft=4;spacingRight=4;overflow=hidden;rotatable=0;points=[[0,0.5],[1,0.5]];portConstraint=eastwest;" vertex="1" parent="zkfFHV4jXpPFQw0GAbJ--17">
          <mxGeometry y="268" width="180" height="26" as="geometry" />
        </mxCell>
        <mxCell id="ZnPqjKqT4I3JlQYO53mA-1" value="pair &lt;int,int&gt; GetPos()" style="text;align=left;verticalAlign=top;spacingLeft=4;spacingRight=4;overflow=hidden;rotatable=0;points=[[0,0.5],[1,0.5]];portConstraint=eastwest;" vertex="1" parent="zkfFHV4jXpPFQw0GAbJ--17">
          <mxGeometry y="294" width="180" height="26" as="geometry" />
        </mxCell>
        <mxCell id="ZnPqjKqT4I3JlQYO53mA-2" value="bool IsActive()" style="text;align=left;verticalAlign=top;spacingLeft=4;spacingRight=4;overflow=hidden;rotatable=0;points=[[0,0.5],[1,0.5]];portConstraint=eastwest;" vertex="1" parent="zkfFHV4jXpPFQw0GAbJ--17">
          <mxGeometry y="320" width="180" height="26" as="geometry" />
        </mxCell>
        <mxCell id="ZnPqjKqT4I3JlQYO53mA-3" value="int GetHealth()" style="text;align=left;verticalAlign=top;spacingLeft=4;spacingRight=4;overflow=hidden;rotatable=0;points=[[0,0.5],[1,0.5]];portConstraint=eastwest;" vertex="1" parent="zkfFHV4jXpPFQw0GAbJ--17">
          <mxGeometry y="346" width="180" height="26" as="geometry" />
        </mxCell>
        <mxCell id="ZnPqjKqT4I3JlQYO53mA-4" value="int GetMaxHealth()&#xa;" style="text;align=left;verticalAlign=top;spacingLeft=4;spacingRight=4;overflow=hidden;rotatable=0;points=[[0,0.5],[1,0.5]];portConstraint=eastwest;" vertex="1" parent="zkfFHV4jXpPFQw0GAbJ--17">
          <mxGeometry y="372" width="180" height="26" as="geometry" />
        </mxCell>
        <mxCell id="ZnPqjKqT4I3JlQYO53mA-5" value="int GetMaxHealth()&#xa;" style="text;align=left;verticalAlign=top;spacingLeft=4;spacingRight=4;overflow=hidden;rotatable=0;points=[[0,0.5],[1,0.5]];portConstraint=eastwest;" vertex="1" parent="zkfFHV4jXpPFQw0GAbJ--17">
          <mxGeometry y="398" width="180" height="26" as="geometry" />
        </mxCell>
        <mxCell id="ZnPqjKqT4I3JlQYO53mA-6" value="bool Damage()" style="text;align=left;verticalAlign=top;spacingLeft=4;spacingRight=4;overflow=hidden;rotatable=0;points=[[0,0.5],[1,0.5]];portConstraint=eastwest;" vertex="1" parent="zkfFHV4jXpPFQw0GAbJ--17">
          <mxGeometry y="424" width="180" height="26" as="geometry" />
        </mxCell>
        <mxCell id="ZnPqjKqT4I3JlQYO53mA-13" style="edgeStyle=orthogonalEdgeStyle;rounded=0;orthogonalLoop=1;jettySize=auto;html=1;exitX=0;exitY=0.5;exitDx=0;exitDy=0;entryX=0.5;entryY=0;entryDx=0;entryDy=0;" edge="1" parent="ZnPqjKqT4I3JlQYO53mA-11" source="ZnPqjKqT4I3JlQYO53mA-7" target="zkfFHV4jXpPFQw0GAbJ--17">
          <mxGeometry relative="1" as="geometry">
            <Array as="points">
              <mxPoint x="223" y="120" />
              <mxPoint x="107" y="120" />
            </Array>
          </mxGeometry>
        </mxCell>
        <mxCell id="ZnPqjKqT4I3JlQYO53mA-79" value="&lt;div&gt;Inherit&lt;/div&gt;" style="edgeLabel;html=1;align=center;verticalAlign=middle;resizable=0;points=[];" vertex="1" connectable="0" parent="ZnPqjKqT4I3JlQYO53mA-13">
          <mxGeometry x="-0.012" y="-1" relative="1" as="geometry">
            <mxPoint as="offset" />
          </mxGeometry>
        </mxCell>
        <mxCell id="ZnPqjKqT4I3JlQYO53mA-7" value="&lt;div&gt;InheritPosition&lt;/div&gt;" style="swimlane;fontStyle=0;childLayout=stackLayout;horizontal=1;startSize=30;horizontalStack=0;resizeParent=1;resizeParentMax=0;resizeLast=0;collapsible=1;marginBottom=0;whiteSpace=wrap;html=1;" vertex="1" parent="ZnPqjKqT4I3JlQYO53mA-11">
          <mxGeometry x="223" y="40" width="140" height="120" as="geometry" />
        </mxCell>
        <mxCell id="ZnPqjKqT4I3JlQYO53mA-8" value="Public" style="text;strokeColor=none;fillColor=none;align=left;verticalAlign=middle;spacingLeft=4;spacingRight=4;overflow=hidden;points=[[0,0.5],[1,0.5]];portConstraint=eastwest;rotatable=0;whiteSpace=wrap;html=1;fontStyle=4" vertex="1" parent="ZnPqjKqT4I3JlQYO53mA-7">
          <mxGeometry y="30" width="140" height="30" as="geometry" />
        </mxCell>
        <mxCell id="ZnPqjKqT4I3JlQYO53mA-9" value="int XPos" style="text;strokeColor=none;fillColor=none;align=left;verticalAlign=middle;spacingLeft=4;spacingRight=4;overflow=hidden;points=[[0,0.5],[1,0.5]];portConstraint=eastwest;rotatable=0;whiteSpace=wrap;html=1;" vertex="1" parent="ZnPqjKqT4I3JlQYO53mA-7">
          <mxGeometry y="60" width="140" height="30" as="geometry" />
        </mxCell>
        <mxCell id="ZnPqjKqT4I3JlQYO53mA-10" value="int YPos" style="text;strokeColor=none;fillColor=none;align=left;verticalAlign=middle;spacingLeft=4;spacingRight=4;overflow=hidden;points=[[0,0.5],[1,0.5]];portConstraint=eastwest;rotatable=0;whiteSpace=wrap;html=1;" vertex="1" parent="ZnPqjKqT4I3JlQYO53mA-7">
          <mxGeometry y="90" width="140" height="30" as="geometry" />
        </mxCell>
        <mxCell id="ZnPqjKqT4I3JlQYO53mA-21" value="CharacterObject : InheritPosition&#xa;" style="swimlane;fontStyle=0;align=center;verticalAlign=top;childLayout=stackLayout;horizontal=1;startSize=26;horizontalStack=0;resizeParent=1;resizeLast=0;collapsible=1;marginBottom=0;rounded=0;shadow=0;strokeWidth=1;" vertex="1" parent="ZnPqjKqT4I3JlQYO53mA-11">
          <mxGeometry x="290" y="189" width="200" height="242" as="geometry">
            <mxRectangle x="550" y="140" width="160" height="26" as="alternateBounds" />
          </mxGeometry>
        </mxCell>
        <mxCell id="ZnPqjKqT4I3JlQYO53mA-22" value="Private" style="text;align=left;verticalAlign=top;spacingLeft=4;spacingRight=4;overflow=hidden;rotatable=0;points=[[0,0.5],[1,0.5]];portConstraint=eastwest;fontStyle=4" vertex="1" parent="ZnPqjKqT4I3JlQYO53mA-21">
          <mxGeometry y="26" width="200" height="26" as="geometry" />
        </mxCell>
        <mxCell id="ZnPqjKqT4I3JlQYO53mA-27" value="string Sprite" style="text;align=left;verticalAlign=top;spacingLeft=4;spacingRight=4;overflow=hidden;rotatable=0;points=[[0,0.5],[1,0.5]];portConstraint=eastwest;fontStyle=0" vertex="1" parent="ZnPqjKqT4I3JlQYO53mA-21">
          <mxGeometry y="52" width="200" height="26" as="geometry" />
        </mxCell>
        <mxCell id="ZnPqjKqT4I3JlQYO53mA-26" value="" style="line;html=1;strokeWidth=1;align=left;verticalAlign=middle;spacingTop=-1;spacingLeft=3;spacingRight=3;rotatable=0;labelPosition=right;points=[];portConstraint=eastwest;" vertex="1" parent="ZnPqjKqT4I3JlQYO53mA-21">
          <mxGeometry y="78" width="200" height="8" as="geometry" />
        </mxCell>
        <mxCell id="ZnPqjKqT4I3JlQYO53mA-40" value="Public&#xa;" style="text;align=left;verticalAlign=top;spacingLeft=4;spacingRight=4;overflow=hidden;rotatable=0;points=[[0,0.5],[1,0.5]];portConstraint=eastwest;fontStyle=4" vertex="1" parent="ZnPqjKqT4I3JlQYO53mA-21">
          <mxGeometry y="86" width="200" height="26" as="geometry" />
        </mxCell>
        <mxCell id="ZnPqjKqT4I3JlQYO53mA-41" value="Constructor()&#xa;" style="text;align=left;verticalAlign=top;spacingLeft=4;spacingRight=4;overflow=hidden;rotatable=0;points=[[0,0.5],[1,0.5]];portConstraint=eastwest;fontStyle=0" vertex="1" parent="ZnPqjKqT4I3JlQYO53mA-21">
          <mxGeometry y="112" width="200" height="26" as="geometry" />
        </mxCell>
        <mxCell id="ZnPqjKqT4I3JlQYO53mA-42" value="int Color" style="text;align=left;verticalAlign=top;spacingLeft=4;spacingRight=4;overflow=hidden;rotatable=0;points=[[0,0.5],[1,0.5]];portConstraint=eastwest;fontStyle=0" vertex="1" parent="ZnPqjKqT4I3JlQYO53mA-21">
          <mxGeometry y="138" width="200" height="26" as="geometry" />
        </mxCell>
        <mxCell id="ZnPqjKqT4I3JlQYO53mA-43" value="string GetSprite()" style="text;align=left;verticalAlign=top;spacingLeft=4;spacingRight=4;overflow=hidden;rotatable=0;points=[[0,0.5],[1,0.5]];portConstraint=eastwest;fontStyle=0" vertex="1" parent="ZnPqjKqT4I3JlQYO53mA-21">
          <mxGeometry y="164" width="200" height="26" as="geometry" />
        </mxCell>
        <mxCell id="ZnPqjKqT4I3JlQYO53mA-44" value="void MoveX()" style="text;align=left;verticalAlign=top;spacingLeft=4;spacingRight=4;overflow=hidden;rotatable=0;points=[[0,0.5],[1,0.5]];portConstraint=eastwest;fontStyle=0" vertex="1" parent="ZnPqjKqT4I3JlQYO53mA-21">
          <mxGeometry y="190" width="200" height="26" as="geometry" />
        </mxCell>
        <mxCell id="ZnPqjKqT4I3JlQYO53mA-45" value="void MoveY()" style="text;align=left;verticalAlign=top;spacingLeft=4;spacingRight=4;overflow=hidden;rotatable=0;points=[[0,0.5],[1,0.5]];portConstraint=eastwest;fontStyle=0" vertex="1" parent="ZnPqjKqT4I3JlQYO53mA-21">
          <mxGeometry y="216" width="200" height="26" as="geometry" />
        </mxCell>
        <mxCell id="ZnPqjKqT4I3JlQYO53mA-46" style="edgeStyle=orthogonalEdgeStyle;rounded=0;orthogonalLoop=1;jettySize=auto;html=1;" edge="1" parent="ZnPqjKqT4I3JlQYO53mA-21" target="ZnPqjKqT4I3JlQYO53mA-27">
          <mxGeometry relative="1" as="geometry">
            <mxPoint y="121" as="sourcePoint" />
            <Array as="points">
              <mxPoint x="-20" y="121" />
              <mxPoint x="-20" y="65" />
            </Array>
          </mxGeometry>
        </mxCell>
        <mxCell id="ZnPqjKqT4I3JlQYO53mA-48" style="edgeStyle=orthogonalEdgeStyle;rounded=0;orthogonalLoop=1;jettySize=auto;html=1;exitX=1;exitY=0.5;exitDx=0;exitDy=0;entryX=0.5;entryY=0;entryDx=0;entryDy=0;" edge="1" parent="ZnPqjKqT4I3JlQYO53mA-11" source="ZnPqjKqT4I3JlQYO53mA-9" target="ZnPqjKqT4I3JlQYO53mA-21">
          <mxGeometry relative="1" as="geometry" />
        </mxCell>
        <mxCell id="ZnPqjKqT4I3JlQYO53mA-80" value="Inherit" style="edgeLabel;html=1;align=center;verticalAlign=middle;resizable=0;points=[];" vertex="1" connectable="0" parent="ZnPqjKqT4I3JlQYO53mA-48">
          <mxGeometry x="0.1287" relative="1" as="geometry">
            <mxPoint as="offset" />
          </mxGeometry>
        </mxCell>
        <mxCell id="ZnPqjKqT4I3JlQYO53mA-53" value="MapObject" style="swimlane;whiteSpace=wrap;html=1;" vertex="1" parent="ZnPqjKqT4I3JlQYO53mA-11">
          <mxGeometry x="260" y="470" width="200" height="190" as="geometry" />
        </mxCell>
        <mxCell id="ZnPqjKqT4I3JlQYO53mA-55" value="Public" style="text;align=left;verticalAlign=top;spacingLeft=4;spacingRight=4;overflow=hidden;rotatable=0;points=[[0,0.5],[1,0.5]];portConstraint=eastwest;fontStyle=4" vertex="1" parent="ZnPqjKqT4I3JlQYO53mA-53">
          <mxGeometry y="30" width="200" height="26" as="geometry" />
        </mxCell>
        <mxCell id="ZnPqjKqT4I3JlQYO53mA-56" value="int Id" style="text;align=left;verticalAlign=top;spacingLeft=4;spacingRight=4;overflow=hidden;rotatable=0;points=[[0,0.5],[1,0.5]];portConstraint=eastwest;fontStyle=0" vertex="1" parent="ZnPqjKqT4I3JlQYO53mA-53">
          <mxGeometry y="56" width="200" height="26" as="geometry" />
        </mxCell>
        <mxCell id="ZnPqjKqT4I3JlQYO53mA-57" value="string MapLines[]" style="text;align=left;verticalAlign=top;spacingLeft=4;spacingRight=4;overflow=hidden;rotatable=0;points=[[0,0.5],[1,0.5]];portConstraint=eastwest;fontStyle=0" vertex="1" parent="ZnPqjKqT4I3JlQYO53mA-53">
          <mxGeometry y="80" width="200" height="26" as="geometry" />
        </mxCell>
        <mxCell id="ZnPqjKqT4I3JlQYO53mA-58" value="int StartCoords[]" style="text;align=left;verticalAlign=top;spacingLeft=4;spacingRight=4;overflow=hidden;rotatable=0;points=[[0,0.5],[1,0.5]];portConstraint=eastwest;fontStyle=0" vertex="1" parent="ZnPqjKqT4I3JlQYO53mA-53">
          <mxGeometry y="106" width="200" height="26" as="geometry" />
        </mxCell>
        <mxCell id="ZnPqjKqT4I3JlQYO53mA-59" value="int EndCoords[]" style="text;align=left;verticalAlign=top;spacingLeft=4;spacingRight=4;overflow=hidden;rotatable=0;points=[[0,0.5],[1,0.5]];portConstraint=eastwest;fontStyle=0" vertex="1" parent="ZnPqjKqT4I3JlQYO53mA-53">
          <mxGeometry y="130" width="200" height="26" as="geometry" />
        </mxCell>
        <mxCell id="ZnPqjKqT4I3JlQYO53mA-60" value="int StartTime" style="text;align=left;verticalAlign=top;spacingLeft=4;spacingRight=4;overflow=hidden;rotatable=0;points=[[0,0.5],[1,0.5]];portConstraint=eastwest;fontStyle=0" vertex="1" parent="ZnPqjKqT4I3JlQYO53mA-53">
          <mxGeometry y="156" width="200" height="26" as="geometry" />
        </mxCell>
        <mxCell id="ZnPqjKqT4I3JlQYO53mA-61" value="Main Program (IGTAssignment.cpp)" style="swimlane;whiteSpace=wrap;html=1;" vertex="1" parent="WIyWlLk6GJQsqaUBKTNV-1">
          <mxGeometry x="110" y="180" width="340" height="340" as="geometry" />
        </mxCell>
        <mxCell id="ZnPqjKqT4I3JlQYO53mA-71" style="edgeStyle=orthogonalEdgeStyle;rounded=0;orthogonalLoop=1;jettySize=auto;html=1;exitX=0;exitY=0.25;exitDx=0;exitDy=0;entryX=0.5;entryY=0;entryDx=0;entryDy=0;" edge="1" parent="ZnPqjKqT4I3JlQYO53mA-61" source="ZnPqjKqT4I3JlQYO53mA-64" target="ZnPqjKqT4I3JlQYO53mA-70">
          <mxGeometry relative="1" as="geometry">
            <Array as="points">
              <mxPoint x="200" y="60" />
              <mxPoint x="75" y="60" />
            </Array>
          </mxGeometry>
        </mxCell>
        <mxCell id="ZnPqjKqT4I3JlQYO53mA-64" value="&lt;div&gt;EnemyObject pool&lt;/div&gt;" style="rounded=1;whiteSpace=wrap;html=1;" vertex="1" parent="ZnPqjKqT4I3JlQYO53mA-61">
          <mxGeometry x="200" y="45" width="120" height="30" as="geometry" />
        </mxCell>
        <mxCell id="ZnPqjKqT4I3JlQYO53mA-75" style="edgeStyle=orthogonalEdgeStyle;rounded=0;orthogonalLoop=1;jettySize=auto;html=1;exitX=0;exitY=0.5;exitDx=0;exitDy=0;entryX=0.75;entryY=0;entryDx=0;entryDy=0;" edge="1" parent="ZnPqjKqT4I3JlQYO53mA-61" source="ZnPqjKqT4I3JlQYO53mA-66">
          <mxGeometry relative="1" as="geometry">
            <mxPoint x="192.5" y="105" as="sourcePoint" />
            <mxPoint x="90" y="188" as="targetPoint" />
            <Array as="points">
              <mxPoint x="90" y="105" />
            </Array>
          </mxGeometry>
        </mxCell>
        <mxCell id="ZnPqjKqT4I3JlQYO53mA-66" value="MapObject variable" style="rounded=1;whiteSpace=wrap;html=1;" vertex="1" parent="ZnPqjKqT4I3JlQYO53mA-61">
          <mxGeometry x="200" y="90" width="120" height="30" as="geometry" />
        </mxCell>
        <mxCell id="ZnPqjKqT4I3JlQYO53mA-70" value="&lt;div&gt;DisplayMap()&lt;/div&gt;" style="rounded=1;whiteSpace=wrap;html=1;" vertex="1" parent="ZnPqjKqT4I3JlQYO53mA-61">
          <mxGeometry x="40" y="188" width="90" height="22" as="geometry" />
        </mxCell>
        <mxCell id="ZnPqjKqT4I3JlQYO53mA-73" style="edgeStyle=orthogonalEdgeStyle;rounded=0;orthogonalLoop=1;jettySize=auto;html=1;exitX=1;exitY=0.5;exitDx=0;exitDy=0;entryX=0;entryY=0.75;entryDx=0;entryDy=0;" edge="1" parent="ZnPqjKqT4I3JlQYO53mA-61" source="ZnPqjKqT4I3JlQYO53mA-72" target="ZnPqjKqT4I3JlQYO53mA-64">
          <mxGeometry relative="1" as="geometry">
            <Array as="points">
              <mxPoint x="150" y="229" />
              <mxPoint x="150" y="68" />
            </Array>
          </mxGeometry>
        </mxCell>
        <mxCell id="ZnPqjKqT4I3JlQYO53mA-74" style="edgeStyle=orthogonalEdgeStyle;rounded=0;orthogonalLoop=1;jettySize=auto;html=1;exitX=1;exitY=0.5;exitDx=0;exitDy=0;entryX=0;entryY=0.75;entryDx=0;entryDy=0;" edge="1" parent="ZnPqjKqT4I3JlQYO53mA-61" source="ZnPqjKqT4I3JlQYO53mA-72" target="ZnPqjKqT4I3JlQYO53mA-66">
          <mxGeometry relative="1" as="geometry">
            <mxPoint x="190" y="150" as="targetPoint" />
            <Array as="points">
              <mxPoint x="170" y="229" />
              <mxPoint x="170" y="113" />
            </Array>
          </mxGeometry>
        </mxCell>
        <mxCell id="ZnPqjKqT4I3JlQYO53mA-72" value="LoadMap()" style="rounded=1;whiteSpace=wrap;html=1;" vertex="1" parent="ZnPqjKqT4I3JlQYO53mA-61">
          <mxGeometry x="40" y="218" width="90" height="22" as="geometry" />
        </mxCell>
        <mxCell id="ZnPqjKqT4I3JlQYO53mA-78" style="edgeStyle=orthogonalEdgeStyle;rounded=0;orthogonalLoop=1;jettySize=auto;html=1;exitX=1;exitY=0.5;exitDx=0;exitDy=0;entryX=0;entryY=0.75;entryDx=0;entryDy=0;" edge="1" parent="ZnPqjKqT4I3JlQYO53mA-61" source="ZnPqjKqT4I3JlQYO53mA-77" target="ZnPqjKqT4I3JlQYO53mA-64">
          <mxGeometry relative="1" as="geometry">
            <Array as="points">
              <mxPoint x="150" y="290" />
              <mxPoint x="150" y="68" />
            </Array>
          </mxGeometry>
        </mxCell>
        <mxCell id="ZnPqjKqT4I3JlQYO53mA-77" value="&lt;div&gt;GetEnemyByPos()&lt;/div&gt;&lt;div&gt;CheckForEnemy()&lt;/div&gt;&lt;div&gt;RequestDamage()&lt;br&gt;&lt;/div&gt;" style="rounded=1;whiteSpace=wrap;html=1;" vertex="1" parent="ZnPqjKqT4I3JlQYO53mA-61">
          <mxGeometry x="10" y="260" width="120" height="60" as="geometry" />
        </mxCell>
        <mxCell id="ZnPqjKqT4I3JlQYO53mA-65" style="edgeStyle=orthogonalEdgeStyle;rounded=0;orthogonalLoop=1;jettySize=auto;html=1;exitX=1;exitY=0.5;exitDx=0;exitDy=0;entryX=0;entryY=0.5;entryDx=0;entryDy=0;" edge="1" parent="WIyWlLk6GJQsqaUBKTNV-1" source="ZnPqjKqT4I3JlQYO53mA-64" target="Q1LwQsz6OWA5U66TN1-t-3">
          <mxGeometry relative="1" as="geometry">
            <Array as="points">
              <mxPoint x="530" y="240" />
              <mxPoint x="530" y="483" />
            </Array>
          </mxGeometry>
        </mxCell>
        <mxCell id="ZnPqjKqT4I3JlQYO53mA-67" style="edgeStyle=orthogonalEdgeStyle;rounded=0;orthogonalLoop=1;jettySize=auto;html=1;exitX=1;exitY=0.5;exitDx=0;exitDy=0;entryX=0;entryY=0.5;entryDx=0;entryDy=0;" edge="1" parent="WIyWlLk6GJQsqaUBKTNV-1" source="ZnPqjKqT4I3JlQYO53mA-66" target="ZnPqjKqT4I3JlQYO53mA-60">
          <mxGeometry relative="1" as="geometry">
            <Array as="points">
              <mxPoint x="430" y="275" />
              <mxPoint x="500" y="275" />
              <mxPoint x="500" y="769" />
            </Array>
          </mxGeometry>
        </mxCell>
      </root>
    </mxGraphModel>
  </diagram>
</mxfile>
